<svg width="1680" height="1050" viewBox="0 0 1680 1050" fill="none" xmlns="http://www.w3.org/2000/svg">
<g clip-path="url(#clip0_4640_45925)">
<path d="M-2.00083 756C205.054 466.728 850.449 179.422 1076.4 148.235C1272.28 121.2 1028.73 377.208 1157.59 425.394C1274.81 469.232 1571.8 302.314 1688.5 121.859" stroke="#294d33" stroke-width="0.822592"/>
<path d="M344.275 139.341L345.719 147.459C345.798 147.906 346.138 148.257 346.571 148.339L354.43 149.83C355.588 150.05 355.588 151.765 354.43 151.985L346.571 153.476C346.138 153.558 345.798 153.909 345.719 154.356L344.275 162.474C344.062 163.67 342.402 163.67 342.189 162.474L340.745 154.356C340.666 153.909 340.326 153.558 339.893 153.476L332.034 151.985C330.877 151.765 330.877 150.05 332.034 149.83L339.893 148.339C340.326 148.257 340.666 147.906 340.745 147.459L342.189 139.341C342.402 138.145 344.062 138.145 344.275 139.341Z" fill="#294d33"/>
<path d="M1351.47 306.9L1352.44 312.319C1352.49 312.617 1352.72 312.852 1353.01 312.907L1358.25 313.902C1359.03 314.049 1359.03 315.194 1358.25 315.341L1353.01 316.336C1352.72 316.391 1352.49 316.625 1352.44 316.924L1351.47 322.343C1351.33 323.141 1350.22 323.141 1350.08 322.343L1349.12 316.924C1349.06 316.625 1348.84 316.391 1348.55 316.336L1343.3 315.341C1342.53 315.194 1342.53 314.049 1343.3 313.902L1348.55 312.907C1348.84 312.852 1349.06 312.617 1349.12 312.319L1350.08 306.9C1350.22 306.101 1351.33 306.101 1351.47 306.9Z" fill="#294d33"/>
<path d="M1229.22 272.997C1229.63 271.204 1228.51 269.397 1226.72 268.961C1224.94 268.525 1223.16 269.626 1222.75 271.419C1222.34 273.212 1223.45 275.019 1225.24 275.455C1227.03 275.891 1228.81 274.79 1229.22 272.997Z" stroke="#222222" stroke-width="1.34255" stroke-miterlimit="10" stroke-linecap="round" stroke-linejoin="round"/>
<path d="M428.213 276.76C428.623 274.967 427.506 273.16 425.72 272.724C423.933 272.288 422.152 273.388 421.742 275.182C421.332 276.975 422.448 278.782 424.235 279.218C426.022 279.654 427.803 278.553 428.213 276.76Z" stroke="#222222" stroke-width="1.34255" stroke-miterlimit="10" stroke-linecap="round" stroke-linejoin="round"/>
</g>
<defs>
<clipPath id="clip0_4640_45925">
<rect width="1680" height="1050" fill="white"/>
</clipPath>
</defs>
</svg>
